<?xml version="1.0" encoding="UTF-8" standalone="no"?>
<!-- Created with Inkscape (http://www.inkscape.org/) -->

<svg
   width="114.30804mm"
   height="127.28252mm"
   viewBox="0 0 114.30804 127.28252"
   version="1.1"
   id="svg1"
   xml:space="preserve"
   inkscape:version="1.3 (0e150ed6c4, 2023-07-21)"
   sodipodi:docname="logo.svg"
   inkscape:export-filename="logo.png"
   inkscape:export-xdpi="29.933411"
   inkscape:export-ydpi="29.933411"
   xmlns:inkscape="http://www.inkscape.org/namespaces/inkscape"
   xmlns:sodipodi="http://sodipodi.sourceforge.net/DTD/sodipodi-0.dtd"
   xmlns="http://www.w3.org/2000/svg"
   xmlns:svg="http://www.w3.org/2000/svg"><sodipodi:namedview
     id="namedview1"
     pagecolor="#ffffff"
     bordercolor="#000000"
     borderopacity="0.25"
     inkscape:showpageshadow="2"
     inkscape:pageopacity="0.0"
     inkscape:pagecheckerboard="0"
     inkscape:deskcolor="#d1d1d1"
     inkscape:document-units="mm"
     inkscape:zoom="1.4160785"
     inkscape:cx="206.55634"
     inkscape:cy="246.45526"
     inkscape:window-width="1346"
     inkscape:window-height="700"
     inkscape:window-x="0"
     inkscape:window-y="0"
     inkscape:window-maximized="1"
     inkscape:current-layer="layer1" /><defs
     id="defs1" /><g
     inkscape:label="Capa 1"
     inkscape:groupmode="layer"
     id="layer1"
     transform="translate(-33.435789,-17.903393)"><path
       style="fill:#ff0000"
       d="m 83.323208,144.83924 c -0.90063,-0.39168 -3.35046,-2.6867 -5.67503,-5.31644 -1.90801,-2.15848 -10.89798,-12.12069 -11.08792,-12.28705 -0.18516,-0.16216 -2.43826,-2.6568 -4.74937,-5.25852 -0.945887,-1.06482 -1.687896,-2.08976 -1.648909,-2.27764 0.03899,-0.18787 -0.220999,-0.41485 -0.577746,-0.50439 -0.356747,-0.0895 -0.887455,-0.48993 -1.179351,-0.88976 -0.291897,-0.39984 -1.315215,-1.55958 -2.274042,-2.5772 -1.891489,-2.00747 -2.786621,-3.55093 -2.786621,-4.80491 0,-0.43974 0.604361,-2.6941 1.343025,-5.00969 6.902574,-21.638497 7.917394,-24.848237 7.917394,-25.041647 0,-0.0926 0.13736,-0.50363 0.30524,-0.91328 0.16788,-0.40966 0.33201,-0.86389 0.36474,-1.00941 0.22407,-0.99621 1.24836,-4.01095 1.69846,-4.99897 0.29809,-0.65434 0.54197,-1.26132 0.54197,-1.34885 0,-0.53788 2.5793,-4.49041 3.26863,-5.00886 0.81873,-0.61577 3.73232,-1.44203 4.03115,-1.1432 0.2706,0.27059 -0.84403,2.43056 -1.50258,2.91177 -0.3508,0.25634 -1.1736,0.73259 -1.82845,1.05834 -0.97761,0.4863 -1.26582,0.80528 -1.61093,1.78289 -0.23117,0.65485 -0.48506,1.36922 -0.5642,1.5875 -0.0791,0.21828 -0.47498,1.5875 -0.87965,3.04271 -0.40467,1.45521 -0.84997,2.79466 -0.98955,2.97656 -0.13959,0.1819 -0.19133,0.33073 -0.115,0.33073 0.0763,0 -0.0154,0.50602 -0.20379,1.12448 -0.18842,0.61846 -0.94211,3.08901 -1.67486,5.4901 -0.73275,2.4011 -2.359841,7.75891 -3.61575,11.90625 -1.255908,4.147347 -2.320877,7.659687 -2.366598,7.805207 -0.04572,0.14552 -0.108971,0.35067 -0.140558,0.45588 -0.03159,0.10521 -0.225339,0.74921 -0.430561,1.43111 -0.767694,2.55085 -0.653756,2.8599 2.28662,6.2022 1.462863,1.66282 3.110167,3.49956 3.660677,4.08165 0.5505,0.58208 2.75895,3.02286 4.90765,5.42395 2.1487,2.4011 4.29031,4.78235 4.75914,5.29167 0.46882,0.50932 1.54466,1.69995 2.39075,2.64583 0.84608,0.94589 2.57622,2.85089 3.84474,4.23334 1.26853,1.38245 2.77025,3.06832 3.33716,3.74639 0.56692,0.67806 1.4178,1.44932 1.89085,1.71391 0.82095,0.45919 0.9534,0.46073 2.91042,0.034 4.61404,-1.00616 8.25275,-1.82796 10.2524,-2.3155 1.16417,-0.28384 2.41433,-0.57825 2.77813,-0.65425 0.363802,-0.076 1.971142,-0.44385 3.571872,-0.81745 1.60073,-0.3736 3.14854,-0.71619 3.43959,-0.76131 0.29104,-0.0451 0.70776,-0.14998 0.92604,-0.23303 0.21828,-0.083 3.07578,-0.76511 6.35,-1.51572 10.9385,-2.50761 10.69009,-2.40694 11.52707,-4.67147 0.25867,-0.69983 0.58553,-1.42377 0.72637,-1.60875 0.14084,-0.18499 0.29155,-0.73172 0.33491,-1.21496 0.0434,-0.48324 0.69061,-2.89174 1.43832,-5.35221 1.39486,-4.59002 2.89406,-9.53557 5.28624,-17.43816 2.24436,-7.414277 3.21159,-10.561327 3.3747,-10.980207 0.085,-0.21828 0.13206,-0.86697 0.10459,-1.44153 -0.0402,-0.84129 -0.31858,-1.35638 -1.42982,-2.64584 -1.78963,-2.07665 -2.50202,-2.86934 -3.65112,-4.06265 -0.51802,-0.53796 -1.63606,-1.75201 -2.48454,-2.6979 -0.84847,-0.94588 -1.97808,-2.19604 -2.51024,-2.77812 -3.35571,-3.67054 -5.81858,-6.39045 -11.38004,-12.56771 -6.54142,-7.26573 -6.45244,-7.19614 -8.46441,-6.61911 -0.49873,0.14303 -0.93624,0.2306 -0.97224,0.19459 -0.036,-0.036 0.0752,-0.77811 0.24706,-1.64912 l 0.31252,-1.58365 1.44107,-0.0818 c 2.62015,-0.14869 2.94983,0.0785 7.37991,5.08631 6.63752,7.577324 13.48077,14.961608 20.21704,22.45254 2.60371,2.79113 3.37344,3.72048 3.37344,4.07299 0,0.19375 0.10633,0.35228 0.23629,0.35228 0.4816,0 1.00841,1.89543 0.80021,2.87915 -0.69816,3.29881 -3.05842,11.357617 -3.45364,11.791987 -0.12578,0.13825 -0.22869,0.47669 -0.22869,0.75209 0,0.2754 -0.41,1.82917 -0.91112,3.45281 -0.50111,1.62365 -1.56159,5.09521 -2.35662,7.71458 -5.43527,17.90749 -5.11952,16.98983 -6.18613,17.97885 -0.95271,0.8834 -2.73987,1.44755 -9.59613,3.02919 -3.1287,0.72174 -7.77214,1.79279 -10.31875,2.38011 -2.54662,0.58732 -4.92787,1.12881 -5.29167,1.20331 -0.3638,0.0745 -3.459432,0.79883 -6.879172,1.60962 -10.65423,2.52603 -10.18647,2.45104 -11.56059,1.85345 z m 2.10399,-5.88367 c -1.25214,-0.24146 -2.05251,-1.50065 -3.43883,-5.41013 -1.75931,-4.96137 -5.70914,-15.74894 -6.59156,-18.00257 -0.78225,-1.99779 -0.72261,-3.09712 0.2226,-4.10325 0.43061,-0.45836 0.86221,-0.60803 1.75334,-0.60803 1.22388,0 4.69299,0.90964 5.27408,1.38292 0.1819,0.14815 0.33072,0.20167 0.33072,0.11893 0,-0.0827 0.68461,0.0931 1.52136,0.39066 0.83674,0.2976 1.87854,0.63405 2.3151,0.74767 0.43657,0.11362 3.71078,1.12204 7.27604,2.24095 3.56527,1.1189 7.798892,2.42804 9.408062,2.90918 3.44884,1.03121 4.45698,1.51235 5.04303,2.40678 0.55685,0.84985 0.33667,2.35023 -0.47106,3.21002 -0.71505,0.76114 -11.226652,8.28872 -11.574462,8.28872 -0.13464,0 -0.28449,0.10166 -0.333,0.2259 -0.17034,0.43633 -7.72269,5.68971 -8.66261,6.02568 -0.99139,0.35436 -1.102,0.36379 -2.07281,0.17657 z m 8.67435,-0.72575 c -0.17483,-0.21066 -0.37136,-0.72237 -0.43672,-1.13713 -0.10149,-0.64397 0.089,-0.93922 1.30397,-2.02151 0.78256,-0.69707 2.32061,-1.88201 3.4179,-2.63319 1.09729,-0.75117 3.645292,-2.55967 5.662232,-4.01887 2.01694,-1.4592 3.99459,-2.81877 4.39477,-3.02127 0.40018,-0.2025 0.7276,-0.47294 0.7276,-0.60099 0,-0.44775 2.26013,-1.2537 3.53189,-1.25946 1.75172,-0.008 2.72757,0.51983 4.8456,2.62063 3.03424,3.00956 3.26418,3.33416 3.26418,4.60805 0,1.83588 -0.96971,2.4139 -5.82083,3.4697 -1.09141,0.23753 -2.43593,0.55194 -2.98783,0.69867 -0.5519,0.14674 -1.3258,0.31652 -1.71979,0.3773 -0.39399,0.0608 -1.86421,0.40417 -3.26715,0.76309 -2.87595,0.73576 -6.44401,1.52556 -7.238772,1.60233 -0.29105,0.0281 -0.70776,0.12458 -0.92605,0.21438 -1.83549,0.7551 -4.26169,0.92785 -4.751,0.33827 z m -16.89173,-5.53094 c -0.46391,-0.34225 -1.35024,-1.20525 -1.96964,-1.91776 -0.61939,-0.71251 -1.31608,-1.47427 -1.54819,-1.69281 -0.31922,-0.30055 -5.26346,-5.766 -8.04464,-8.89269 -0.14552,-0.1636 -0.97896,-1.10067 -1.85209,-2.08238 -0.87312,-0.98171 -1.97436,-2.21802 -2.44719,-2.74735 -0.472825,-0.52934 -0.878295,-1.20055 -0.901041,-1.49159 -0.07874,-1.00747 0.07709,-1.8546 0.445919,-2.42411 0.486622,-0.7514 3.348072,-1.41297 6.871062,-1.58859 2.61485,-0.13035 2.65868,-0.12257 3.74228,0.66498 1.0981,0.79808 2.40084,3.01426 2.54192,4.32425 0.0362,0.33603 0.15541,0.67772 0.26494,0.75931 0.34402,0.25626 5.75399,15.28745 5.75399,15.98701 0,0.77467 -0.84587,1.72402 -1.5361,1.72402 -0.26277,0 -0.85732,-0.28003 -1.32122,-0.62229 z m 44.473752,-4.20847 c -1.09636,-0.6297 -5.4456,-5.07868 -5.80447,-5.93758 -0.19679,-0.47098 -0.35735,-1.30664 -0.35681,-1.85701 0.001,-1.02152 0.82823,-2.72048 1.32459,-2.72048 0.15126,0 0.387,-0.29451 0.52385,-0.65448 0.13686,-0.35996 1.89008,-2.63774 3.89606,-5.06173 2.00597,-2.424 4.26987,-5.21666 5.03089,-6.20591 0.76101,-0.98926 1.65071,-1.98569 1.9771,-2.21431 0.32639,-0.22861 0.50135,-0.41566 0.38881,-0.41566 -0.41407,0 1.25703,-1.89631 2.01777,-2.2897 0.72721,-0.37606 0.83767,-0.368 1.47805,0.1079 0.44791,0.33286 0.72215,0.81914 0.77726,1.37822 0.0762,0.77322 -5.0905,18.69545 -5.49467,19.05983 -0.0807,0.0728 -0.18001,0.42995 -0.22068,0.79375 -0.0407,0.36381 -0.19024,0.7014 -0.33238,0.75021 -0.14214,0.0488 -0.18729,0.20386 -0.10033,0.34455 0.23705,0.38356 -0.94822,3.533 -1.62684,4.32277 -0.70049,0.8152 -2.54825,1.13375 -3.4782,0.59963 z m -13.70289,-9.38596 c -0.29104,-0.0728 -1.55633,-0.46744 -2.81174,-0.87692 -1.25542,-0.40948 -3.33901,-1.06457 -4.63021,-1.45575 -1.291202,-0.39119 -2.466702,-0.78299 -2.612222,-0.87067 -0.14552,-0.0877 -0.50182,-0.19629 -0.79177,-0.24135 -0.28996,-0.0451 -1.65917,-0.44594 -3.04271,-0.89084 -1.38353,-0.4449 -4.06333,-1.27862 -5.9551,-1.85271 -1.89177,-0.57409 -3.67771,-1.14776 -3.96875,-1.27482 -0.29104,-0.12705 -1.24354,-0.41953 -2.11667,-0.64995 -3.47368,-0.91669 -6.36241,-2.0006 -6.81221,-2.55609 -0.51421,-0.63502 -0.60688,-1.86918 -0.19774,-2.63365 0.14635,-0.27346 2.55736,-2.51123 5.35781,-4.97283 2.80045,-2.461597 7.41345,-6.726387 10.2511,-9.477297 9.14205,-8.86257 10.227602,-9.85577 10.978062,-10.04413 1.03671,-0.26019 2.01271,0.15481 2.54677,1.08289 0.25076,0.43577 1.30004,4.84042 2.33174,9.78813 1.03171,4.94771 2.10283,10.067397 2.38027,11.377087 1.28952,6.08732 1.60836,7.57365 2.11849,9.87571 0.30071,1.35706 0.54675,2.94005 0.54675,3.51776 0,1.85137 -1.4032,2.69812 -3.57187,2.15543 z m 5.29801,-2.78276 c -0.61712,-0.53661 -0.87844,-1.48604 -2.65038,-9.6295 -1.08116,-4.96881 -2.01938,-9.314587 -2.08493,-9.657297 -0.11509,-0.60164 -1.0261,-4.85648 -1.91792,-8.95747 -0.23734,-1.0914 -0.53486,-2.40109 -0.66116,-2.91042 -0.68172,-2.74921 0.10365,-4.49791 2.0201,-4.49791 1.02535,0 7.80149,2.80328 7.80149,3.22747 0,0.13384 0.10543,0.17818 0.23428,0.0985 0.1919,-0.11859 3.38725,1.18091 8.36468,3.40178 0.43656,0.19479 2.16297,0.92844 3.83645,1.63034 4.74889,1.99178 5.41972,2.57837 5.52641,4.83249 0.0494,1.04308 -0.19887,1.69784 -1.06529,2.80979 -1.58272,2.03122 -2.79224,3.546497 -3.17341,3.975627 -0.25851,0.29104 -1.10048,1.304 -1.87105,2.25101 -0.77057,0.94702 -1.60256,1.95905 -1.84887,2.24896 -0.24631,0.28991 -2.22376,2.72977 -4.39432,5.4219 -2.17056,2.69214 -4.34347,5.22222 -4.82868,5.6224 -1.10079,0.90788 -2.33819,0.95767 -3.2874,0.13229 z m -64.725244,-6.57661 c -1.075856,-1.19621 -2.320532,-2.58737 -2.765947,-3.09146 -0.628063,-0.71081 -0.937795,-0.87594 -1.379871,-0.73563 -0.82301,0.26122 -0.983913,1.57963 -0.45175,3.70158 0.245026,0.97701 0.386221,1.83567 0.313768,1.90812 -0.252864,0.25286 -6.872864,-6.59783 -8.606011,-15.512767 -1.706232,-8.776511 0.189823,-16.781834 0.998842,-19.57917 1.451192,-5.01777 0.880243,-5.86678 -2.069868,-3.07795 l -1.15682,1.09358 0.174644,-1.39584 c 0.712608,-5.69552 4.921503,-12.75257 10.311894,-17.28993 1.782981,-1.50083 1.873723,-1.54368 2.081217,-0.98277 0.119325,0.32257 0.139951,0.93708 0.04584,1.36558 -0.09412,0.4285 -0.199765,1.09056 -0.234778,1.47123 -0.03501,0.38068 -0.19862,1.40652 -0.363569,2.27965 -0.164949,0.87312 -0.418735,3.17279 -0.563969,5.11037 -0.145234,1.93759 -0.320785,3.61466 -0.390115,3.72684 -0.06933,0.11218 -0.03743,0.53533 0.07088,0.94034 0.192271,0.71893 0.286168,0.64234 3.962686,-3.2321 3.78093,-3.98447 5.828838,-5.63433 9.50409,-7.65683 l 1.057978,-0.5822 -0.09756,0.83787 c -0.05366,0.46084 -0.34195,2.09205 -0.640653,3.62492 -0.785291,4.02991 -0.841208,4.5747 -0.446508,4.35029 0.182127,-0.10355 1.878384,-1.21118 3.769457,-2.4614 3.42081,-2.26155 3.44809,-2.27362 5.35641,-2.36998 2.80952,-0.14188 2.99068,-0.001 1.744,1.35332 -0.56746,0.61658 -1.56279,1.83543 -2.21185,2.70856 -0.64907,0.87312 -1.2647,1.65072 -1.36807,1.72799 -0.31658,0.23665 -3.07661,5.9329 -3.27437,6.75775 -0.10215,0.42607 -0.25674,0.89374 -0.34353,1.03926 -0.0868,0.14552 -0.16704,0.32411 -0.17833,0.39687 -0.15391,0.99203 -0.810969,3.59928 -1.166873,4.63021 -0.488298,1.41443 -0.721049,2.17429 -2.431303,7.9375 -0.604573,2.03729 -1.22138,3.86074 -1.370681,4.05211 -0.149301,0.19136 -0.296721,0.60808 -0.3276,0.92604 -0.03088,0.31795 -0.122484,0.81622 -0.203566,1.10727 -0.360159,1.29278 -1.793687,6.091347 -2.687424,8.995827 -0.537338,1.74625 -1.27102,4.18703 -1.630404,5.42396 -0.359385,1.23693 -0.748098,2.34502 -0.863808,2.46244 -0.11571,0.11741 -1.090628,-0.76524 -2.166483,-1.96145 z m 10.779978,-1.19853 c -1.021961,-1.02196 -0.915291,-1.95957 0.902649,-7.93415 0.880103,-2.892407 2.372825,-7.818777 3.317155,-10.947477 2.58628,-8.56871 2.66179,-8.73125 4.05638,-8.73125 1.38918,0 1.6913,0.77626 2.00807,5.15938 0.0841,1.16416 0.26083,3.12869 0.39266,4.36562 0.13183,1.23693 0.31032,3.0824 0.39665,4.10104 0.0863,1.01865 0.26803,2.98318 0.40381,4.36563 0.32493,3.308577 0.32513,6.793197 4.2e-4,7.399927 -0.14305,0.26729 -0.73159,0.85942 -1.30787,1.31584 -0.84388,0.66837 -1.50121,0.90418 -3.37793,1.2118 -1.28159,0.21006 -3.17712,0.38402 -4.21231,0.38656 -1.684,0.004 -1.955581,-0.0688 -2.579684,-0.69292 z m 13.589964,-4.59413 c -0.29104,-0.29104 -0.53058,-0.61846 -0.5323,-0.7276 -0.008,-0.535 -1.39699,-15.033347 -2.35026,-24.540107 -0.26265,-2.61937 -0.42918,-4.8513 -0.37006,-4.95983 0.13949,-0.25609 3.78178,-0.20325 3.78178,0.0549 0,0.28701 -1.45781,1.76508 -2.25804,2.28941 l -0.68942,0.45173 0.76967,0.32362 c 2.11358,0.88869 5.77286,0.89312 8.22524,0.01 0.63396,-0.2283 1.27743,-0.33798 1.42994,-0.24373 0.16175,0.1 0.19863,0.0441 0.0885,-0.13408 -0.17341,-0.28057 0.16478,-0.43026 0.73576,-0.32566 0.12753,0.0234 0.39068,-0.18425 0.58478,-0.46137 0.50637,-0.72294 1.83148,-1.19935 2.82575,-1.01592 0.47054,0.0868 2.64146,0.52591 4.82427,0.97579 2.18282,0.44987 4.32594,0.87675 4.7625,0.94862 3.47645,0.57233 4.97949,1.34715 5.2431,2.70282 0.219062,1.12657 -0.4901,2.22556 -2.94667,4.56647 -1.26304,1.20357 -5.21346,5.01071 -8.77872,8.46031 -9.52536,9.216357 -11.9011,11.456137 -12.53094,11.813777 -0.87827,0.49871 -2.21704,0.40879 -2.81489,-0.18906 z M 126.6338,87.360763 c -0.45945,-0.1687 -2.94034,-1.25666 -4.10104,-1.79846 -0.43656,-0.20378 -2.06726,-0.90686 -3.62378,-1.56239 -1.55651,-0.65554 -3.04479,-1.31059 -3.30729,-1.45568 -0.26249,-0.14508 -1.79964,-0.80889 -3.41589,-1.47513 -4.85305,-2.0005 -6.13618,-3.04159 -6.38308,-5.17905 -0.29862,-2.58526 1.47975,-8.64143 2.88925,-9.83919 1.68937,-1.4356 2.91537,-0.94709 5.90329,2.35224 1.16417,1.2855 2.57832,2.84483 3.14255,3.46517 0.56424,0.62035 0.96351,1.1279 0.88727,1.1279 -0.0762,0 0.65274,0.80511 1.61995,1.78912 0.96721,0.98402 2.83854,2.97831 4.15851,4.43177 5.43156,5.98085 5.67917,6.38631 4.7288,7.74316 -0.40545,0.57887 -1.52432,0.75824 -2.49854,0.40054 z m 8.00066,-7.07288 c 0,0 0.88309,-3.133281 1.14487,-4.74148 l 5.5528,-3.17307 c -0.24863,4.537143 -0.91813,8.238582 -2.77414,11.81179 -1.33176,-1.284436 -3.92353,-3.89724 -3.92353,-3.89724 z m -9.21975,-10.84433 c 2.29849,-9.158031 3.30202,-37.298876 -25.37153,-48.71726 11.14364,-1.093143 24.10923,6.644712 32.23125,15.56867 -0.091,-6.028393 -3.9441,-11.914773 -3.68696,-12.17194 12.07759,2.41734 13.79162,20.736053 12.21298,27.004 1.92988,-4.081258 2.64839,-1.885495 4.65946,-13.84964 2.30917,17.267839 3.81299,15.929339 -8.8554,35.18958 0.77542,-13.553149 -1.86383,-21.954282 -7.3546,-34.25031 0.85735,3.661776 3.32282,6.617149 4.64557,16.52323 1.34678,10.08615 -1.22842,22.48958 -1.9797,22.48958 -2.7273,-3.258502 -3.52952,-4.267075 -6.50107,-7.78591 z m -32.647572,5.78307 c -3.1287,-0.6413 -5.95502,-1.28325 -6.28072,-1.42654 -0.3257,-0.1433 -0.77218,-0.19147 -0.99219,-0.10704 -0.55485,0.21292 -0.5122,0.0326 0.39374,-1.66515 0.65702,-1.23123 0.79375,-1.79562 0.79375,-3.2764 v -1.78895 l -1.22269,0.36798 c -1.58384,0.47667 -2.53101,0.26659 -2.33416,-0.5177 0.0788,-0.31392 0.22781,-1.1619 0.33116,-1.88441 l 0.18791,-1.31366 1.45274,-0.34813 c 1.69807,-0.40692 6.49291,-0.27553 8.15871,0.22355 1.71668,0.51433 2.25655,1.28482 2.37551,3.39027 0.0814,1.44112 -0.008,2.01157 -0.4551,2.88699 -0.30612,0.60005 -0.55658,1.15527 -0.55658,1.23383 0,0.29408 1.12693,0.12534 2.69839,-0.40404 2.746082,-0.92509 4.911872,-2.71854 6.771552,-5.60741 1.11201,-1.72743 1.55213,-1.81726 2.25137,-0.45953 0.52362,1.01672 0.45257,2.68252 -0.19009,4.45706 -0.19244,0.53137 -0.55524,1.6805 -0.80621,2.55362 -0.60836,2.11641 -1.58537,3.75649 -2.60994,4.38122 -1.28066,0.78088 -3.529912,0.62392 -9.967152,-0.69556 z m -19.31459,0.83618 c 0,-0.0155 0.75705,-0.81957 1.68232,-1.78673 0.92527,-0.96715 1.74335,-1.99186 1.81795,-2.27713 0.12272,-0.46928 0.0444,-0.49969 -0.82242,-0.31928 -0.52693,0.10968 -1.5844,0.26671 -2.34993,0.34895 -1.27693,0.1372 -1.37099,0.11051 -1.13893,-0.3231 0.13913,-0.25996 0.44777,-0.63433 0.68587,-0.83193 0.2381,-0.19761 0.78038,-1.04763 1.20507,-1.88893 0.62991,-1.24785 0.77109,-1.86003 0.76635,-3.32312 -0.007,-2.2424 -0.59596,-3.61041 -2.11215,-4.90821 -2.32582,-1.99081 -6.27393,-2.48844 -9.45756,-1.19204 -0.90951,0.37036 -1.65365,0.62295 -1.65365,0.5613 0,-0.0616 0.25397,-0.61335 0.56438,-1.22601 1.25091,-2.469 3.5991,-4.93956 6.02487,-6.33884 l 1.42988,-0.82481 -1.033,-0.36743 c -0.56815,-0.20209 -1.27113,-0.41559 -1.56217,-0.47443 -0.29104,-0.0589 -1.11656,-0.24607 -1.83449,-0.41606 l -1.30533,-0.30907 0.69701,-0.59955 c 1.15607,-0.99441 3.96505,-1.90653 9.18968,-2.98403 1.01568,-0.20947 0.74004,-0.25022 -1.8759,-0.27732 -2.26954,-0.0235 -3.61046,0.10507 -5.15938,0.49477 -2.63482,0.66291 -6.534744,2.58496 -7.896526,3.89176 l -1.041185,0.99914 1.305769,0.19689 c 0.718172,0.10829 1.951902,0.33136 2.741622,0.49572 1.61886,0.33693 1.53408,0.45853 -0.90463,1.29757 -1.367545,0.4705 -5.937001,2.61673 -6.219765,2.92135 -0.07276,0.0784 -1.084792,0.7831 -2.248959,1.56603 -1.164166,0.78293 -2.156354,1.52246 -2.204861,1.64342 -0.04851,0.12095 -0.250115,0.21991 -0.448018,0.21991 -0.197903,0 -0.515403,0.20836 -0.705555,0.46302 -0.190153,0.25466 -0.561579,0.63264 -0.825391,0.83995 -0.445621,0.35019 -0.466199,0.32203 -0.28999,-0.39687 0.104317,-0.4256 0.260632,-0.83334 0.347366,-0.9061 0.181282,-0.15208 0.2632,-1.10439 0.356219,-4.14111 0.06274,-2.04829 0.02615,-2.20599 -0.727686,-3.13617 -0.436563,-0.53869 -1.28204,-1.25305 -1.878839,-1.58746 -0.991034,-0.55533 -1.369444,-0.60262 -4.365625,-0.54552 -1.804295,0.0344 -3.518661,0.15131 -3.809703,0.25984 -1.426538,0.53199 2.503992,-2.41539 5.291667,-3.96805 7.693037,-4.28482 8.69752,-5.0327 8.657344,-6.44574 -0.03345,-1.17666 -1.758815,-3.58208 -3.665038,-5.10963 -0.916659,-0.73456 -1.593772,-1.45349 -1.504696,-1.59762 0.201174,-0.32551 5.199636,-0.0809 7.180126,0.35138 0.774026,0.16895 1.448224,0.26578 1.498219,0.21519 0.04999,-0.0506 -0.193273,-0.92542 -0.540594,-1.94407 -0.469241,-1.37622 -0.632206,-2.42991 -0.634271,-4.10104 -0.0038,-3.06427 0.193938,-3.25446 1.46304,-1.4073 1.111128,1.61723 2.39438,2.984 3.805463,4.05313 0.480161,0.3638 1.096072,0.86982 1.368697,1.12448 0.27262,0.25466 0.59983,0.46302 0.72713,0.46302 0.3239,0 5.43746,2.98191 5.54527,3.23365 0.0485,0.11326 0.20026,0.20593 0.33722,0.20593 0.63497,0 3.79225,2.3042 5.11509,3.73302 1.70777,1.8446 1.91144,1.52404 0.45457,-0.71543 -0.96209,-1.47892 -2.39703,-2.94938 -4.62293,-4.73738 -0.83746,-0.67271 -1.03367,-1.03583 -1.28668,-2.38125 -0.72666,-3.86411 -0.16072,-8.95139 1.39921,-12.57754 l 0.59044,-1.37253 0.4534,2.21254 c 0.57197,2.7912 1.11155,4.15242 2.50263,6.31357 0.98134,1.5246 3.40619,4.4532 4.60052,5.55625 0.23634,0.21829 1.73778,1.58078 3.33652,3.02778 4.41817,3.99878 7.20715,6.75932 8.24743,8.16331 1.13735,1.53498 1.44697,1.46024 0.51354,-0.12396 -1.39722,-2.37136 -3.73228,-4.97538 -8.0325,-8.9577 -2.43993,-2.25956 -4.64014,-4.52175 -4.88936,-5.02709 -0.96212,-1.95084 -0.67726,-6.84947 0.52981,-9.11108 l 0.42887,-0.80355 0.1941,1.46828 c 0.34278,2.59302 2.10585,6.45664 3.90537,8.5583 1.47956,1.72799 3.39852,3.73814 4.78768,5.01518 3.67677,3.38002 8.21677,8.10993 9.0535,9.4322 1.55734,2.46104 2.35928,4.83205 2.49771,7.38476 0.0941,1.73576 0.22632,2.33503 0.55963,2.53712 0.98863,0.59942 1.912082,1.71833 1.912082,2.3168 0,0.91555 0.22457,1.02313 1.15803,0.55474 0.84985,-0.42643 2.81072,-2.36077 2.81072,-2.77269 0,-0.12713 0.11906,-0.23115 0.26458,-0.23115 0.44272,0 0.2928,2.90956 -0.27111,5.26189 -0.76194,3.17837 -2.06841,5.49756 -4.263362,7.56816 -1.00399,0.94712 -1.92765,1.72204 -2.05257,1.72204 -0.12492,0 -0.16757,-0.52834 -0.0948,-1.1741 0.43532,-3.86215 -1.93255,-5.87014 -7.27495,-6.16929 -1.34606,-0.0754 -2.44739,-0.1851 -2.44739,-0.24383 0,-0.0587 0.24035,-0.57791 0.53411,-1.15373 0.81784,-1.60309 0.95931,-3.19356 0.33438,-3.75912 -0.94586,-0.85599 -4.23184,-1.22748 -7.63005,-0.8626 -3.44525,0.36993 -7.89344,1.31594 -6.86448,1.45989 0.14552,0.0204 0.5027,0.0835 0.79375,0.14034 0.29104,0.0568 0.94588,0.12728 1.4552,0.15657 0.50933,0.0293 1.04007,0.11506 1.17944,0.1906 0.13936,0.0755 0.53944,0.16784 0.88905,0.20511 0.34961,0.0373 0.68675,0.11887 0.7492,0.18132 0.0624,0.0624 -0.19685,0.93237 -0.57622,1.93317 -0.37936,1.00079 -0.75387,2.32726 -0.83223,2.9477 -0.25768,2.04029 1.03353,3.05953 2.53957,2.00466 0.62255,-0.43605 0.62575,-0.43373 0.45469,0.33073 -0.0948,0.42343 -0.2455,1.60331 -0.33501,2.62195 -0.14725,1.67583 -0.10834,1.90099 0.40884,2.36599 0.40361,0.36288 0.95714,0.5139 1.88359,0.5139 0.86016,0 1.312,0.11182 1.312,0.32467 0,0.66896 -2.69735,3.26359 -4.05075,3.8965 -3.14722,1.47177 -3.92546,1.76121 -5.32591,1.98083 -0.80919,0.12689 -1.47126,0.21799 -1.47126,0.20245 z"
       id="path1"
       sodipodi:nodetypes="csssscsssssssssssssscssscssssssssssssscsssscssscsssssssssssccsscssssssssssssccssssssscsssssssssssssssscsssssssssssssssssssssssssssssssssssssssssssssscssssssssssssssscsssssscsssssssssccsssssssscssssssssssscssssscsssscsssssssssssssscsccssscsccsssscsscscssssssssccssssssssssssssccccccscsccscsccssssscssscssccsssssssscssscssscssscscscscssssscssssssssssssssccssssssscssssssssssscssscssscscsssscssssssssccssssccsccsssscsssssscc" /><path
       sodipodi:type="star"
       style="opacity:1;fill:#ffffff;fill-opacity:0.9996;stroke:none;stroke-width:1.072;stroke-opacity:1"
       id="path2"
       inkscape:flatsided="false"
       sodipodi:sides="2"
       sodipodi:cx="-178.87875"
       sodipodi:cy="72.183601"
       sodipodi:r1="16.558563"
       sodipodi:r2="6.4224544"
       sodipodi:arg1="0.72064782"
       sodipodi:arg2="2.2914441"
       inkscape:rounded="0"
       inkscape:randomized="0"
       d="m -166.43701,83.110126 -16.67974,-6.100831 -8.20375,-15.752219 16.67974,6.100832 z"
       inkscape:transform-center-x="0.2846356"
       inkscape:transform-center-y="-0.29872754"
       transform="matrix(0.30476766,0.17482317,-0.12391707,0.21602354,150.08314,64.046299)" /><path
       style="fill:#ffffff;stroke-width:0.372148"
       d="m 82.928693,108.80242 c -1.399452,-1.13792 -2.026028,-2.86051 -1.478523,-4.06475 0.547566,-1.20441 1.78254,-1.91088 3.464913,-1.98213 l 0.936048,-0.0396 1.295918,0.53553 c 0.712763,0.29453 1.613867,0.73215 2.002463,0.97248 0.388599,0.24032 0.783619,0.4815 0.877816,0.53595 0.131745,0.0762 0.313061,-0.012 0.785731,-0.38235 0.601648,-0.47132 0.829468,-0.72876 0.619519,-0.70007 -0.243504,0.0333 -3.15436,-1.55094 -3.737551,-2.03413 -1.07536,-0.89099 -1.761478,-2.002218 -1.811886,-2.934515 -0.05988,-1.107367 0.51463,-2.41042 1.383821,-3.138678 0.594479,-0.498096 1.939534,-1.017584 2.526933,-0.975955 0.31612,0.02241 0.389379,-0.01488 0.494492,-0.251704 0.178975,-0.403235 0.809193,-1.172839 1.301264,-1.589071 0.856485,-0.724472 3.519701,-1.988762 5.820907,-2.763308 l 1.206001,-0.405922 2.152691,2.042563 c 2.85175,2.705876 3.03026,2.870923 3.07994,2.847576 0.0234,-0.01098 0.35282,-0.257959 0.73208,-0.548815 0.37925,-0.290857 0.72034,-0.515162 0.75797,-0.498457 0.0376,0.0167 0.1753,0.130553 0.3059,0.252991 l 0.23744,0.222614 -0.44036,0.360617 c -0.2422,0.19834 -1.50193,1.182843 -2.79941,2.187777 -1.29746,1.004939 -2.3736,1.860418 -2.39142,1.901065 -0.0178,0.04064 0.6043,0.359246 1.38246,0.708003 2.41639,1.082989 3.86769,2.323419 4.92201,4.206909 1.0029,1.79166 0.83356,4.17555 -0.43454,6.11709 -1.34786,2.06364 -4.10242,3.51568 -8.024032,4.22977 -1.319162,0.24021 -3.248438,0.47288 -3.392134,0.40911 -0.05507,-0.0245 -0.532816,-0.56988 -1.061673,-1.21208 -0.528859,-0.6422 -1.256553,-1.47741 -1.617111,-1.85601 l -0.655551,-0.68839 -1.204714,0.0254 c -3.710075,0.0781 -5.851593,-0.3626 -7.237402,-1.48945 z m 3.541424,0.71371 c 0.359088,0.0488 0.905981,0.0982 1.215321,0.10981 0.858467,0.0321 2.683219,-0.14292 2.639259,-0.25314 -0.08183,-0.2052 -1.348488,-1.43844 -1.987495,-1.93505 -2.360219,-1.8343 -4.129448,-2.59677 -5.161543,-2.2244 -1.063907,0.38385 -0.750782,2.26109 0.551318,3.30525 0.373996,0.29993 2.023177,0.89963 2.74314,0.99753 z m 12.695132,2.61866 c 1.829951,-0.38848 4.081841,-2.08702 4.743591,-3.57795 0.87576,-1.97309 0.34,-3.94711 -1.51246,-5.5727 -0.53431,-0.46889 -0.73842,-0.57985 -2.51679,-1.36823 -2.652033,-1.17589 -2.503006,-1.15872 -3.436342,-0.3921 -0.418287,0.34357 -0.77543,0.65826 -0.793653,0.69933 -0.01822,0.0411 0.296522,0.17838 0.699438,0.30514 0.402918,0.12678 1.453695,0.57179 2.335064,0.98889 1.344603,0.63634 1.689433,0.83587 2.142813,1.23997 1.40554,1.25279 1.77366,2.25372 1.25698,3.41779 -0.56703,1.27753 -1.83904,1.8456 -4.65835,2.08037 -0.737737,0.0614 -0.862616,0.099 -0.746103,0.22472 0.39756,0.42881 1.914794,1.99707 1.958494,2.02436 0.02784,0.0173 0.26513,-0.014 0.527326,-0.0696 z m -1.71328,-3.41112 c 0.990727,-0.3805 1.083599,-0.439 1.233696,-0.77717 0.450829,-1.01574 0.220424,-1.27299 -2.016743,-2.25217 -1.803491,-0.78931 -3.918661,-1.51773 -4.128921,-1.42187 -0.185241,0.0844 -1.511115,1.05681 -1.496593,1.09756 0.0066,0.0185 0.748945,0.65653 1.649601,1.41764 0.900656,0.76112 1.901323,1.60874 2.223706,1.88359 l 0.586153,0.49972 0.438858,-0.0179 c 0.241373,-0.01 0.920984,-0.20308 1.510243,-0.42939 z m -3.735704,-7.21773 0.643581,0.15446 0.817193,-0.59536 c 0.449451,-0.32746 0.80372,-0.63034 0.787257,-0.67308 -0.01647,-0.0427 -0.551505,-0.22252 -1.18897,-0.399523 -2.414651,-0.670411 -3.321146,-1.490047 -4.155839,-3.757631 l -0.389181,-1.057281 -0.451729,0.194823 c -1.152729,0.497147 -1.554688,2.044948 -0.847355,3.262878 0.667117,1.148691 2.70583,2.371794 4.78504,2.870734 z m 4.38289,-3.64544 c 1.0526,0.226401 0.951333,0.257777 2.153745,-0.667351 l 0.77593,-0.596993 -0.32082,-0.547453 c -0.46479,-0.793121 -1.185603,-1.68734 -1.962785,-2.434984 -0.608328,-0.585202 -0.78369,-0.700634 -1.67552,-1.102906 -0.966651,-0.43601 -1.018504,-0.447991 -1.753312,-0.408345 -0.961611,0.052 -1.511565,0.353798 -1.88329,1.033482 -0.564411,1.032005 -0.301371,2.133491 0.726543,3.042403 0.51389,0.454392 2.830695,1.443655 3.939509,1.682147 z"
       id="path3" /></g></svg>
